<?xml version="1.0" encoding="UTF-8"?>
<svg id="Capa_1" data-name="Capa 1" xmlns="http://www.w3.org/2000/svg" viewBox="0 0 612 792">
  <defs>
    <style>
      .cls-1 {
        fill: #f39200;
      }

      .cls-2 {
        fill: #e7275f;
      }

      .cls-3 {
        fill: #246db5;
      }
    </style>
  </defs>
  <g>
    <g>
      <path class="cls-2" d="M220.54,449.63h.02-.02Z"/>
      <path class="cls-2" d="M240.2,442.96c-.68.38-1.38.74-2.1,1.09.73-.35,1.44-.71,2.1-1.08.06-.03.11-.06.17-.1-.05.03-.11.06-.17.09ZM220.54,449.63h.02-.02Z"/>
    </g>
    <path class="cls-2" d="M460.97,344.7c-1.3-2.15-3.6-3.49-6.32-3.69h0c-.74-.05-1.48-.04-2.19-.02-.32,0-.64.01-.95.01-3.52-.01-10.22-.02-16.01-.03-3.2,0-6.12-.01-8.07-.01-4.3-.02-8.61-.03-12.91-.04h-.08c-.43,0-.82.03-1.19.1-.64-.05-1.32-.08-2.01-.08-10.17-.04-20.35-.02-30.5,0l-41.96.03h-8.91c-4.78,0-8.66,3.88-8.66,8.66v.05c0,1.92,1.56,3.48,3.48,3.48h21.88c-2.88,10.75-5.54,20.76-8.11,30.46-2.78,10.48-5.66,21.31-8.8,33.02-.95,3.55-1.9,7.11-2.85,10.64-.06.19-.1.38-.13.58l-.32,1.2c-.24.89-.12,1.82.35,2.62.46.8,1.21,1.37,2.12,1.61l.18.06h.05c4.4,1.06,8.93-1.56,10.21-5.91.02-.06.04-.11.05-.15l.89-3.33c3.17-11.82,6.07-22.73,8.87-33.29,2.65-9.98,5.38-20.29,8.37-31.42.54-1.99,1.07-3.99,1.6-5.98l.07-.26c16.49-.02,33.53-.04,50.28,0,4.56,0,7.65.28,8.9,3.86.53,1.51.15,2.98-.27,4.69l-1,4.02h-13.42c-.92,0-1.9-.04-2.94-.08-5.46-.23-12.25-.51-15.47,5.19-1.76,3.12-3.3,6.43-4.78,9.64-.74,1.6-1.51,3.25-2.28,4.84-3.48,7.13-6.96,14.27-10.44,21.41-.24.49-.49.99-.76,1.51-2.54,5.01-6.38,12.59.94,17.22,2.45,1.54,5.05,1.52,7.56,1.49.32,0,.64,0,.96,0h10.55c2.16,0,4.37.03,6.51.05,2.73.03,5.53.06,8.32.04-.14.58-.29,1.15-.44,1.73-1.61,6.4-6.23,10.28-12.34,10.37h-143.41l-.41.38c-.92.85-1.92,1.64-2.98,2.36-.45.3-.88.58-1.3.83,0,0,0,0-.01,0-.11.07-.22.13-.33.19-.05.03-.11.07-.17.1-.06.04-.11.07-.17.1-.66.37-1.36.73-2.1,1.08,0,0-.01,0-.02,0-.24.11-.48.22-.73.34-.94.42-1.93.81-2.95,1.17-.78.27-1.6.52-2.45.76-.19.05-.37.11-.59.16-.63.17-1.26.32-1.88.46-.39.09-.78.16-1.16.24l-.36.07c-.28.05-.56.1-.82.15-.13.02-.26.04-.39.07-.26.04-.53.08-.79.12l-.38.06c-.4.06-.81.11-1.2.16-.32.04-.64.08-.98.11h0c-.89.09-1.86.18-2.97.26l.11,2.88h167.68c8.41-.03,15.87-3.58,20.45-9.76.68-.91,1.28-1.85,1.84-2.89,2.05-3.83,3.03-8.22,3.98-12.48.28-1.26.55-2.45.84-3.62.46-1.83.91-3.66,1.36-5.49v-.06c.04-.13.08-.25.11-.38v-.03c.1-.36.19-.72.27-1.08.08-.32.16-.65.24-.98,3.41-13.69,6.82-27.4,10.23-41.1l.02-.07c.22-.88.44-1.76.66-2.64l.13-.52c.13-.53.26-1.05.4-1.58,1.28-5.02,2.61-10.2.97-15.35.32,0,.63,0,.95,0,1.83,0,5.6.01,9.35.01,2.73,0,5.46,0,7.43.01v.75l-7.48,16.5c-1.95,4.3-.04,9.38,4.26,11.34l.09.04c.82.36,1.74.39,2.59.07.86-.33,1.55-.97,1.93-1.81l1.79-3.96v-.03c.06-.09.11-.17.15-.27,1.11-2.45,2.22-4.91,3.34-7.36,2.37-5.22,4.83-10.61,7.17-15.95,1.16-2.64,1.04-5.44-.32-7.69ZM220.54,449.63s.02,0,.02,0h0s-.02,0-.02,0ZM412.83,382.38c-1.74,6.98-3.48,13.97-5.21,20.96-.32,1.27-.95,3.6-1.57,5.86-.68,2.5-1.19,4.36-1.48,5.49-.18.02-.4.04-.48.04h-26.76c3.01-6.28,12.36-25.58,17.91-37.03.69-.02,1.61-.04,2.08-.04h16.68c-.39,1.57-.78,3.15-1.17,4.71Z"/>
  </g>
  <g>
    <path class="cls-1" d="M288.95,344.56v.04c0,3.52-2.17,6.69-5.42,7.97h-.01s-.26.1-.26.1c-.01,0-.02,0-.03.01l-.24.08c-.84.26-1.71.4-2.59.4h-39.02c-1.65,0-3.3,0-4.95-.01-3.23-.01-6.58-.03-9.86.01-.57,0-1.12.03-1.68.06,0,0-.01,0-.02,0l-.06.03h-.23c-.41.07-.8.13-1.17.21-1.19.24-2.34.55-3.43.93-1.07.37-1.69.62-3.16,1.46-1.45.84-2.22,1.41-3.31,2.43-2.47,2.35-4.22,5.48-5.2,9.28-1.41,5.48-.72,10.16,2.1,14.31,3.47,5.09,8.48,6.77,14.96,7.73,6.68.99,13.7,2.56,19.78,7.34,5.34,4.19,9.1,9.92,10.6,16.14,2.48,10.37-.82,21.26-8.63,28.42-1.02.94-2.14,1.82-3.31,2.62-.5.34-.97.64-1.43.92,0,0-.02.01-.02.01-.01.01-.03.02-.04.03-.12.07-.24.14-.36.2-.11.07-.22.13-.34.2-.84.47-1.74.93-2.68,1.36-.13.06-.27.12-.41.18-1.01.46-2.09.88-3.18,1.25-.83.29-1.71.56-2.6.81-.21.06-.45.13-.68.18-.64.17-1.3.33-1.95.48-.41.09-.83.18-1.26.26l-.36.07c-.3.06-.6.11-.9.16-.12.02-.21.03-.3.05h-.04c-.29.06-.57.1-.86.14l-.38.06c-.44.06-.86.12-1.27.17-.34.04-.67.08-1.01.12-.12.01-.24.03-.36.04-.79.08-1.66.16-2.63.23h0s-.02,0-.02,0h-.05s-.08.01-.12.01h-62.39s-.09,0-.14,0h-4.64c-1.9,0-3.45-1.55-3.45-3.45v-.05c0-4.42,3.31-8.07,7.7-8.51.09-.01.18-.02.26-.03.07,0,.14-.01.19-.01.14-.01.25-.01.36-.01h18.49c6.33,0,12.67,0,19,0h19.84c14.15,0,22.93-3.55,26.84-10.87,2.4-4.49,2.6-9.58.55-14.36-2.27-5.3-6.97-9.4-12.56-10.95-2.37-.65-4.86-1.04-7.26-1.42-4.43-.69-9.01-1.41-13.26-3.8-5.64-3.19-10.15-8.42-12.72-14.75-3.97-9.81-1.5-22.74,6.03-31.44,4.27-4.94,10.7-8.5,17.64-9.76,2.75-.5,5.34-.57,7.51-.57h52.26c.16,0,.32,0,.46.02h4.25c1.9,0,3.45,1.55,3.45,3.45Z"/>
    <path class="cls-1" d="M223.37,450.83c-.81.09-1.68.17-2.63.23h0c.97-.08,1.83-.15,2.63-.23Z"/>
    <path class="cls-1" d="M283.23,352.69c-.75.32-1.57.48-2.44.48h-.4c.89,0,1.75-.13,2.59-.4l.24-.08Z"/>
  </g>
  <g>
    <path class="cls-3" d="M312.01,345.7l-.61,2.31-5.13,19.39-.28,1.06c-1.96,7.38-3.66,13.85-5.29,20.11-1.7,6.5-3.45,13.21-5.5,20.88-.74,2.82-1.5,5.64-2.25,8.45l-2.5,9.38c-1.02,3.8-4.51,6.34-8.3,6.34-.67,0-1.35-.08-2.02-.24l-.19-.05c-.91-.24-1.66-.81-2.12-1.61-.46-.8-.58-1.73-.35-2.62l3.32-12.46c3.06-11.49,5.85-22.09,8.54-32.33,2.57-9.75,5.21-19.82,8.12-30.74l1.24-4.68c.24-.91.37-1.4.47-1.7h-.01c.98-3.18,3.75-5.51,7.06-5.95,1.11-.14,2.22-.07,3.31.21h.03c.91.24,1.66.81,2.12,1.61.47.8.59,1.73.36,2.62Z"/>
    <path class="cls-3" d="M311.4,348.01c-.03.19-.07.4-.13.62-.95,3.55-1.89,7.1-2.84,10.65-.72,2.71-1.44,5.41-2.16,8.12l5.13-19.39Z"/>
  </g>
</svg>